<svg width="26" height="18" viewBox="0 0 26 18" fill="none" xmlns="http://www.w3.org/2000/svg">
<path d="M10.9865 17.5157C11.3094 17.1928 11.4644 16.8027 11.4515 16.3453C11.4386 15.8879 11.2701 15.4978 10.9462 15.1749L6.38564 10.6143H24.3856C24.843 10.6143 25.2267 10.4594 25.5367 10.1494C25.8466 9.83946 26.0011 9.45632 26 9C26 8.5426 25.845 8.15892 25.5351 7.84897C25.2251 7.53901 24.842 7.38457 24.3856 7.38565H6.38564L10.9865 2.78475C11.3094 2.46188 11.4708 2.07821 11.4708 1.63372C11.4708 1.18924 11.3094 0.806098 10.9865 0.484304C10.6637 0.161435 10.28 0 9.83551 0C9.39103 0 9.00788 0.161435 8.68609 0.484304L1.30044 7.86996C1.13901 8.03139 1.02439 8.20628 0.956585 8.39462C0.888783 8.58296 0.855419 8.78475 0.856495 9C0.856495 9.21525 0.8904 9.41704 0.958202 9.60538C1.026 9.79372 1.14009 9.96861 1.30044 10.13L8.72645 17.5561C9.02242 17.852 9.3921 18 9.83551 18C10.2789 18 10.6626 17.8386 10.9865 17.5157Z" fill=""/>
</svg>
