<svg width="8" height="11" viewBox="0 0 8 11" fill="none" xmlns="http://www.w3.org/2000/svg">
<path d="M0.952813 0.87614C0.644375 0.69864 0.25 0.91864 0.25 1.28145L0.253125 7.78145C0.253125 8.0052 0.371875 8.21114 0.565 8.32364L0.566563 8.32427L3.65406 10.093L3.65594 10.0943C3.87156 10.2161 4.13625 10.218 4.35281 10.0927H4.35344L7.43656 8.32427L7.43813 8.32333C7.53307 8.26829 7.61186 8.18925 7.66661 8.09414C7.72135 7.99903 7.75011 7.89119 7.75 7.78145V1.28114C7.75 0.91864 7.35562 0.698328 7.04719 0.875828L4 2.63614L0.953125 0.876453L0.952813 0.87614ZM0.878125 7.78114L0.875 1.55302L4 3.35802L4.00313 9.56114C3.98919 9.56084 3.97556 9.55708 3.96344 9.5502L3.96281 9.54989L0.878438 7.78302L0.878125 7.78114Z" fill=""/>
</svg>
