<svg width="10" height="11" viewBox="0 0 10 11" fill="none" xmlns="http://www.w3.org/2000/svg">
<g clip-path="url(#clip0_443_623)">
<path d="M3.74364 3.60119L2.51864 3.45369C2.2328 3.41952 2.0903 3.40202 1.97155 3.4316C1.81322 3.47119 1.67864 3.56744 1.59697 3.6991C1.53572 3.79744 1.51697 3.92994 1.4803 4.1941C1.4428 4.45869 1.42447 4.59077 1.45655 4.70077C1.49905 4.84702 1.6028 4.9716 1.74489 5.04744C1.85155 5.1041 2.14739 5.13994 2.4328 5.1741L2.06489 7.79827C1.77947 7.7641 1.48322 7.72827 1.36489 7.75827C1.20655 7.79744 1.07197 7.89369 0.989888 8.02494C0.929055 8.1241 0.910721 8.25619 0.873221 8.52077C0.836138 8.78494 0.817805 8.91702 0.849472 9.02702C0.892388 9.17327 0.996138 9.29785 1.13822 9.37369C1.24447 9.43077 1.38739 9.44785 1.6728 9.48202L2.8978 9.62952C3.18364 9.66369 3.32614 9.68119 3.44489 9.65119C3.59964 9.61432 3.73398 9.51868 3.81947 9.38452C3.88072 9.28535 3.89947 9.15327 3.93614 8.88869C3.97364 8.62452 3.99197 8.49285 3.95989 8.38244C3.93738 8.30834 3.90028 8.2395 3.85076 8.17996C3.80124 8.12042 3.74031 8.0714 3.67155 8.03577C3.56489 7.9791 3.26905 7.94327 2.98364 7.9091L3.35155 5.28494C3.63697 5.3191 3.93322 5.35494 4.05155 5.32494C4.20989 5.28577 4.34447 5.18952 4.42655 5.05827C4.48739 4.9591 4.50572 4.82702 4.54322 4.56244C4.5803 4.29827 4.59864 4.16619 4.56697 4.05619C4.54442 3.98205 4.50725 3.91319 4.45766 3.85365C4.40807 3.79411 4.34705 3.7451 4.27822 3.70952C4.17197 3.65244 4.02905 3.63535 3.74364 3.60119ZM8.45197 7.20119L7.3228 7.49285C7.05905 7.56077 6.9278 7.59452 6.81239 7.57994C6.66013 7.56124 6.52114 7.48397 6.42489 7.36452C6.35405 7.27577 6.31864 7.1491 6.24822 6.89577C6.17739 6.64244 6.14239 6.51577 6.15739 6.40452C6.1778 6.2566 6.25822 6.12244 6.38114 6.0316C6.47364 5.96327 6.74655 5.89285 7.00947 5.82494L6.30947 3.30994C6.04614 3.37785 5.77364 3.44827 5.65822 3.43369C5.50596 3.41499 5.36697 3.33772 5.27072 3.21827C5.19989 3.12952 5.16447 3.00285 5.09405 2.74952C5.02322 2.49619 4.98822 2.36952 5.00322 2.25827C5.01372 2.18427 5.03898 2.11313 5.07748 2.04908C5.11599 1.98502 5.16696 1.92934 5.22739 1.88535C5.31947 1.81702 5.45114 1.78327 5.71405 1.71535L6.84405 1.42369C7.10739 1.35577 7.23864 1.32202 7.35405 1.3366C7.50822 1.35619 7.64739 1.43369 7.74155 1.55202C7.81239 1.64077 7.8478 1.76744 7.91822 2.02077C7.98905 2.2741 8.02405 2.40077 8.00905 2.51202C7.99858 2.58598 7.97338 2.65709 7.93495 2.72114C7.89652 2.78519 7.84563 2.84089 7.7853 2.88494C7.6928 2.95327 7.41989 3.02369 7.15697 3.0916L7.85697 5.6066C8.11989 5.53869 8.3928 5.46827 8.50822 5.48285C8.66239 5.50244 8.80156 5.57994 8.89572 5.69827C8.96656 5.78702 9.00197 5.91369 9.07239 6.16702C9.14322 6.42035 9.17822 6.54702 9.16322 6.65827C9.15272 6.73227 9.12747 6.8034 9.08896 6.86746C9.05045 6.93152 8.99948 6.98719 8.93906 7.03119C8.84697 7.09952 8.7153 7.13327 8.45197 7.20119Z" fill=""/>
</g>
<defs>
<clipPath id="clip0_443_623">
<rect width="10" height="10" fill="white" transform="translate(0 0.5)"/>
</clipPath>
</defs>
</svg>
