<svg width="22" height="21" viewBox="0 0 22 21" fill="none" xmlns="http://www.w3.org/2000/svg">
<g clip-path="url(#clip0_333_133)">
<path d="M7.00016 2C-0.549968 3.44946 -2.13904 9.20583 7.00016 10C6.411 11.426 6.04712 12.4007 6.00016 14C4.4006 15.3444 3.00016 17 3.00016 17L5.00016 19L3.00016 20H8.00016C4.7123 17.0113 7.10571 16 11.0002 16C14.948 16 18.0735 17.2063 15.0002 20H19.0002L18.0002 19L20.0002 17C20.0002 17 18.5056 15.2958 17.0002 14C16.971 12.355 16.6068 11.4684 16.0002 10C25.1399 9.20599 23.5504 3.44955 16.0002 2C14.1712 3.25695 16.3346 5.43049 18.0002 4C19.6541 6.2012 18.6161 7.39493 15.0002 6C14.9993 5.9991 15.0011 6.00094 15.0002 6C14.5673 7.14255 12.2834 8 11.0002 8C9.71684 8 8.43341 7.14255 8.00016 6C4.38517 7.39412 3.34637 6.20095 5.00016 4C6.66578 5.43053 8.82907 3.25691 7.00016 2ZM11.0002 3C9.84685 3 9.00016 3.66217 9.00016 5C9.00016 6.33787 9.84685 8 11.0002 8C12.1536 8 14.0002 6.33795 14.0002 5C14.0002 3.66204 12.1536 3 11.0002 3Z" fill=""/>
</g>
<defs>
<clipPath id="clip0_333_133">
<rect width="22" height="21" fill="white"/>
</clipPath>
</defs>
</svg>
