<svg width="10" height="11" viewBox="0 0 10 11" fill="none" xmlns="http://www.w3.org/2000/svg">
<path d="M8.57075 6.69159L9.16658 6.09575L8.57075 5.49992L7.08325 6.98742L3.51242 3.41659L4.99992 1.92909L4.40409 1.33325L3.80825 1.92909L3.21242 1.33325L2.32075 2.22492L1.72492 1.62909L1.12909 2.22492L1.72492 2.82075L0.833252 3.71242L1.42909 4.30825L0.833252 4.90409L1.42909 5.49992L2.91659 4.01242L6.48742 7.58325L4.99992 9.07075L5.59575 9.66658L6.19159 9.07075L6.78742 9.66658L7.67909 8.77492L8.27492 9.37075L8.87075 8.77492L8.27492 8.17909L9.16658 7.28742L8.57075 6.69159Z" fill=""/>
</svg>
