<svg width="20" height="29" viewBox="0 0 20 29" fill="none" xmlns="http://www.w3.org/2000/svg">
<path d="M19.78 9.891C19.7802 7.99523 19.2355 6.13935 18.2108 4.54437C17.1862 2.94939 15.7246 1.68251 14.0004 0.894618C12.2761 0.106721 10.3617 -0.168998 8.48513 0.100295C6.60859 0.369587 4.84898 1.17254 3.41585 2.41354C1.98272 3.65454 0.936465 5.28129 0.401674 7.10006C-0.133117 8.91884 -0.133906 10.853 0.399401 12.6722C0.932707 14.4914 1.97764 16.119 3.40975 17.3612C4.84187 18.6033 6.60082 19.4077 8.47714 19.6786V21.6648H5.18048C4.80576 21.6648 4.4464 21.8137 4.18144 22.0786C3.91647 22.3436 3.76762 22.7029 3.76762 23.0777C3.76762 23.4524 3.91647 23.8117 4.18144 24.0767C4.4464 24.3417 4.80576 24.4905 5.18048 24.4905H8.47714V26.8453C8.47714 27.22 8.626 27.5794 8.89096 27.8443C9.15592 28.1093 9.51529 28.2581 9.89 28.2581C10.2647 28.2581 10.6241 28.1093 10.889 27.8443C11.154 27.5794 11.3029 27.22 11.3029 26.8453V24.4905H14.5995C14.9742 24.4905 15.3336 24.3417 15.5986 24.0767C15.8635 23.8117 16.0124 23.4524 16.0124 23.0777C16.0124 22.7029 15.8635 22.3436 15.5986 22.0786C15.3336 21.8137 14.9742 21.6648 14.5995 21.6648H11.3029V19.6786C13.6553 19.3361 15.806 18.1589 17.3624 16.3619C18.9187 14.565 19.7768 12.2682 19.78 9.891ZM2.82571 9.891C2.82571 8.49382 3.24003 7.12801 4.01626 5.96629C4.79249 4.80458 5.89579 3.89913 7.18661 3.36445C8.47744 2.82977 9.89784 2.68987 11.2682 2.96245C12.6385 3.23503 13.8972 3.90784 14.8852 4.89579C15.8732 5.88375 16.546 7.14249 16.8185 8.51283C17.0911 9.88316 16.9512 11.3036 16.4165 12.5944C15.8819 13.8852 14.9764 14.9885 13.8147 15.7647C12.653 16.541 11.2872 16.9553 9.89 16.9553C8.01711 16.9531 6.22154 16.2081 4.8972 14.8838C3.57287 13.5595 2.8279 11.7639 2.82571 9.891Z" fill=""/>
</svg>
