<svg width="19" height="19" viewBox="0 0 19 19" fill="none" xmlns="http://www.w3.org/2000/svg">
<path d="M18.174 9.7105C18.174 8.93163 18.1121 8.36326 17.9782 7.77384H9.27246V11.2893H14.3825C14.2796 12.1629 13.7232 13.4786 12.4869 14.3627L12.4695 14.4804L15.2221 16.6589L15.4128 16.6783C17.1643 15.0258 18.174 12.5944 18.174 9.7105Z" fill="#4285F4"/>
<path d="M9.27263 18.9729C11.7761 18.9729 13.8779 18.1308 15.413 16.6783L12.487 14.3627C11.7041 14.9205 10.6532 15.31 9.27263 15.31C6.82061 15.31 4.73948 13.6575 3.99762 11.3735L3.88888 11.383L1.02669 13.6459L0.989258 13.7522C2.51404 16.8467 5.64606 18.9729 9.27263 18.9729Z" fill="#34A853"/>
<path d="M3.9974 11.3735C3.80165 10.7841 3.68836 10.1525 3.68836 9.5C3.68836 8.84738 3.80165 8.21588 3.9871 7.62647L3.98191 7.50094L1.08385 5.20162L0.989033 5.2477C0.360597 6.53181 0 7.97382 0 9.5C0 11.0262 0.360597 12.4681 0.989033 13.7522L3.9974 11.3735Z" fill="#FBBC05"/>
<path d="M9.27263 3.68996C11.0138 3.68996 12.1882 4.45831 12.8579 5.1004L15.4748 2.49009C13.8676 0.963908 11.7761 0.0271435 9.27263 0.0271435C5.64606 0.0271435 2.51404 2.15326 0.989258 5.2477L3.98732 7.62647C4.73949 5.34247 6.82061 3.68996 9.27263 3.68996Z" fill="#EB4335"/>
</svg>
