<svg width="10" height="11" viewBox="0 0 10 11" fill="none" xmlns="http://www.w3.org/2000/svg">
<path d="M5.09171 1.07526C4.58976 1.07721 4.09366 1.11705 3.66398 1.17721L3.86319 1.90455C4.68155 1.73697 5.53702 1.79088 6.3964 1.9065L6.54874 1.20455C6.09952 1.11041 5.59366 1.0735 5.09171 1.07526ZM3.36515 1.39322C3.16398 1.4444 2.96671 1.50514 2.77921 1.57506C2.61905 1.63463 2.51944 1.76256 2.40616 1.92916C2.29288 2.09557 2.17569 2.30846 2.05655 2.55475C1.81632 3.04693 1.56573 3.66998 1.33624 4.28522C1.11495 4.87897 0.914757 5.461 0.765733 5.90631C0.884288 5.81256 1.03077 5.75201 1.18722 5.75592C1.32257 5.35748 1.48702 4.88678 1.66573 4.40826C1.89288 3.79889 2.14249 3.1817 2.37296 2.70904C2.48819 2.47076 2.59952 2.2694 2.69718 2.1274C2.79484 1.98463 2.89054 1.90826 2.9003 1.90436C3.07804 1.83854 3.26358 1.7819 3.45499 1.73404L3.36515 1.39322ZM6.84562 1.49537L6.76944 1.84361C6.99015 1.92135 7.19913 2.01568 7.39444 2.12662C7.45109 2.15826 7.56046 2.27526 7.67179 2.45904C7.78116 2.64264 7.9003 2.88678 8.01749 3.16998C8.25577 3.73443 8.49405 4.45123 8.70694 5.1524C8.76749 5.35553 8.82804 5.5567 8.88468 5.75201C9.02726 5.77154 9.16007 5.8399 9.26554 5.93756C9.28312 5.95318 9.29874 5.96881 9.31437 5.98639C9.23038 5.68756 9.14054 5.37115 9.04288 5.05084C8.82999 4.34186 8.5878 3.61725 8.34171 3.03326C8.22062 2.74029 8.09562 2.48443 7.97257 2.27721C7.84757 2.07096 7.72843 1.91256 7.57023 1.82154C7.34171 1.69186 7.09952 1.58365 6.84562 1.49537ZM6.21671 4.53522L3.74991 4.5567L3.74015 4.55865C3.14835 4.62115 2.69718 5.15436 2.61319 5.84772C2.73234 5.85358 2.84952 5.85943 2.96476 5.86334C3.03898 5.32037 3.38273 4.95123 3.7753 4.90826L6.18351 4.88678C6.48819 4.93756 6.81437 5.25006 6.89835 5.84186C7.01359 5.836 7.13077 5.83209 7.24991 5.82623C7.15421 5.09381 6.73234 4.61529 6.23038 4.53717L6.21671 4.53522ZM8.79288 6.09967C8.2753 6.12701 7.78312 6.15436 7.30851 6.17584C7.6171 7.36725 7.60343 8.57037 7.60148 9.75397C8.16984 9.69928 8.75382 9.63483 9.35929 9.56256C9.37101 9.56061 9.40226 9.54889 9.44718 9.46295C9.4921 9.37897 9.53507 9.24029 9.56241 9.06842C9.61905 8.72467 9.62491 8.25787 9.57609 7.79498C9.5253 7.33404 9.41788 6.87701 9.26944 6.5567C9.19523 6.39654 9.11124 6.27154 9.02921 6.19733C8.94523 6.12311 8.87491 6.09576 8.79288 6.09967ZM1.15812 6.10748C1.09151 6.10944 1.03351 6.13678 0.964366 6.20123C0.885265 6.2735 0.802452 6.3985 0.730186 6.55865C0.58585 6.88092 0.482725 7.34381 0.431358 7.81256C0.379991 8.28131 0.37921 8.75787 0.424327 9.11139C0.446788 9.28717 0.481944 9.43365 0.519639 9.52154C0.55753 9.61139 0.589366 9.61725 0.56671 9.61334C1.15987 9.71295 1.73761 9.78522 2.30851 9.836C2.19913 8.69928 2.24015 7.49615 2.54093 6.19537C2.10929 6.17584 1.65987 6.14654 1.18741 6.10944C1.17745 6.10944 1.16769 6.10748 1.15812 6.10748ZM6.94913 6.19147C5.57413 6.25006 4.31632 6.27154 2.8964 6.21295C2.58585 7.52154 2.54679 8.71881 2.66398 9.86529C4.18351 9.97467 5.66398 9.92584 7.24991 9.78522C7.25187 8.56256 7.26554 7.35553 6.94913 6.19147Z" fill=""/>
</svg>
