<svg width="19" height="20" viewBox="0 0 19 20" fill="none" xmlns="http://www.w3.org/2000/svg">
<path d="M16.0001 0L12.0001 3L13.0001 4L15.0001 3V16L13.0001 15L12.0001 16L16.0001 19L19.0001 16L18.0001 15L16.0001 16V3L18.0001 4L19.0001 3L16.0001 0ZM5.00015 0C3.98002 0.123503 3.00015 1.55576 3.00015 3C3.00015 3.79588 3.56688 4.51335 4.00015 5C3.43695 5.09868 2.35312 5.54847 2.00015 6C1.64717 6.45157 1.18927 7.27497 1.00015 8C0.657733 9.31357 1.01211 10.5862 1.00015 12H3.00015V19C4.30527 19.2746 5.74317 19.2639 7.00015 19L8.00015 12H10.0001C9.99897 10.5689 9.31043 9.32354 9.00015 8C8.82909 7.27025 8.35736 6.44644 8.00015 6C7.6428 5.5536 7.63245 5.09132 7.00015 5H6.00015H7.00015C7.41468 4.51587 7.00015 3.77663 7.00015 3C7.00015 1.46026 6.12409 0 5.00015 0Z" fill=""/>
</svg>
