<svg width="14" height="15" viewBox="0 0 14 15" fill="none" xmlns="http://www.w3.org/2000/svg">
<path d="M1.75 13.2857H4.375V8.14286H9.625V13.2857H12.25V5.57143L7 1.71429L1.75 5.57143V13.2857ZM1.75 15C1.26875 15 0.856626 14.832 0.513626 14.496C0.170626 14.16 -0.000581848 13.7566 1.48557e-06 13.2857V5.57143C1.48557e-06 5.3 0.0621263 5.04286 0.186376 4.8C0.310626 4.55714 0.481835 4.35714 0.700001 4.2L5.95 0.342857C6.11042 0.228571 6.27812 0.142857 6.45312 0.0857142C6.62812 0.0285713 6.81042 0 7 0C7.18958 0 7.37187 0.0285713 7.54687 0.0857142C7.72187 0.142857 7.88958 0.228571 8.05 0.342857L13.3 4.2C13.5187 4.35714 13.6902 4.55714 13.8145 4.8C13.9387 5.04286 14.0006 5.3 14 5.57143V13.2857C14 13.7571 13.8285 14.1609 13.4855 14.4969C13.1425 14.8329 12.7307 15.0006 12.25 15H7.875V9.85714H6.125V15H1.75Z" fill=""/>
</svg>
