<svg width="17" height="13" viewBox="0 0 17 13" fill="none" xmlns="http://www.w3.org/2000/svg">
<path d="M10.0124 11.775C9.81241 11.575 9.71641 11.3333 9.72441 11.05C9.73241 10.7667 9.83674 10.525 10.0374 10.325L12.8624 7.49999H1.71241C1.42907 7.49999 1.19141 7.40399 0.999406 7.21199C0.807406 7.01999 0.711739 6.78265 0.712406 6.49999C0.712406 6.21665 0.808406 5.97899 1.00041 5.78699C1.19241 5.59499 1.42974 5.49932 1.71241 5.49999H12.8624L10.0124 2.64999C9.81241 2.44999 9.71241 2.21232 9.71241 1.93699C9.71241 1.66165 9.81241 1.42432 10.0124 1.22499C10.2124 1.02499 10.4501 0.924988 10.7254 0.924988C11.0007 0.924988 11.2381 1.02499 11.4374 1.22499L16.0124 5.79999C16.1124 5.89999 16.1834 6.00832 16.2254 6.12499C16.2674 6.24165 16.2881 6.36665 16.2874 6.49999C16.2874 6.63332 16.2664 6.75832 16.2244 6.87499C16.1824 6.99165 16.1117 7.09999 16.0124 7.19999L11.4124 11.8C11.2291 11.9833 11.0001 12.075 10.7254 12.075C10.4507 12.075 10.2131 11.975 10.0124 11.775Z" fill=""/>
</svg>
