<svg width="19" height="19" viewBox="0 0 19 19" fill="none" xmlns="http://www.w3.org/2000/svg">
<path d="M15.2156 15.8281L15.8281 15.2156L14.1875 13.575V11.125H13.3125V13.925L15.2156 15.8281ZM13.75 18.125C12.5396 18.125 11.5077 17.6983 10.6543 16.8449C9.80083 15.9915 9.37442 14.9598 9.375 13.75C9.375 12.5396 9.80171 11.5077 10.6551 10.6543C11.5085 9.80083 12.5402 9.37442 13.75 9.375C14.9604 9.375 15.9923 9.80171 16.8458 10.6551C17.6992 11.5085 18.1256 12.5402 18.125 13.75C18.125 14.9604 17.6983 15.9923 16.8449 16.8458C15.9915 17.6992 14.9598 18.1256 13.75 18.125ZM4.125 5.875H12.875V4.125H4.125V5.875ZM8.21563 16.375H2.375C1.89375 16.375 1.48163 16.2035 1.13863 15.8605C0.795626 15.5175 0.624418 15.1057 0.625001 14.625V2.375C0.625001 1.89375 0.796502 1.48163 1.1395 1.13863C1.4825 0.795626 1.89433 0.624418 2.375 0.625001H14.625C15.1063 0.625001 15.5184 0.796502 15.8614 1.1395C16.2044 1.4825 16.3756 1.89433 16.375 2.375V8.2375C15.9521 8.03333 15.5254 7.88021 15.0949 7.77813C14.6644 7.67604 14.2161 7.625 13.75 7.625C13.5896 7.625 13.44 7.6285 13.3011 7.6355C13.1623 7.6425 13.0203 7.66088 12.875 7.69063V7.625H4.125V9.375H9.48438C9.22188 9.62292 8.98475 9.89271 8.773 10.1844C8.56125 10.476 8.37546 10.7896 8.21563 11.125H4.125V12.875H7.69063C7.66146 13.0208 7.64309 13.1632 7.6355 13.302C7.62792 13.4408 7.62442 13.5902 7.625 13.75C7.625 14.2313 7.66875 14.6798 7.75625 15.0958C7.84375 15.5117 7.99688 15.9381 8.21563 16.375Z" fill=""/>
</svg>
