<svg width="16" height="18" viewBox="0 0 16 18" fill="none" xmlns="http://www.w3.org/2000/svg">
<path d="M7.99992 5.225C8.87223 5.225 9.70882 5.58321 10.3256 6.22084C10.9425 6.85846 11.289 7.72326 11.289 8.625C11.289 9.52674 10.9425 10.3915 10.3256 11.0292C9.70882 11.6668 8.87223 12.025 7.99992 12.025C7.12761 12.025 6.29103 11.6668 5.67421 11.0292C5.05739 10.3915 4.71087 9.52674 4.71087 8.625C4.71087 7.72326 5.05739 6.85846 5.67421 6.22084C6.29103 5.58321 7.12761 5.225 7.99992 5.225ZM7.99992 6.925C7.56377 6.925 7.14547 7.10411 6.83706 7.42292C6.52866 7.74173 6.35539 8.17413 6.35539 8.625C6.35539 9.07587 6.52866 9.50827 6.83706 9.82708C7.14547 10.1459 7.56377 10.325 7.99992 10.325C8.43608 10.325 8.85437 10.1459 9.16278 9.82708C9.47119 9.50827 9.64445 9.07587 9.64445 8.625C9.64445 8.17413 9.47119 7.74173 9.16278 7.42292C8.85437 7.10411 8.43608 6.925 7.99992 6.925ZM6.35539 17.125C6.14983 17.125 5.97715 16.972 5.94426 16.768L5.64002 14.5155C5.122 14.303 4.67798 14.014 4.2504 13.674L2.20296 14.5325C2.02206 14.6005 1.80005 14.5325 1.70138 14.3455L0.0568518 11.4045C0.00652562 11.3169 -0.0112162 11.2134 0.00694417 11.1133C0.0251045 11.0131 0.0779236 10.9233 0.155524 10.8605L1.8905 9.4495L1.83294 8.625L1.8905 7.775L0.155524 6.3895C0.0779236 6.32671 0.0251045 6.23686 0.00694417 6.13674C-0.0112162 6.03661 0.00652562 5.93308 0.0568518 5.8455L1.70138 2.9045C1.80005 2.7175 2.02206 2.641 2.20296 2.7175L4.2504 3.5675C4.67798 3.236 5.122 2.947 5.64002 2.7345L5.94426 0.482C5.97715 0.278 6.14983 0.125 6.35539 0.125H9.64445C9.85001 0.125 10.0227 0.278 10.0556 0.482L10.3598 2.7345C10.8778 2.947 11.3219 3.236 11.7494 3.5675L13.7969 2.7175C13.9778 2.641 14.1998 2.7175 14.2985 2.9045L15.943 5.8455C16.0499 6.0325 16.0005 6.262 15.8443 6.3895L14.1093 7.775L14.1669 8.625L14.1093 9.475L15.8443 10.8605C16.0005 10.988 16.0499 11.2175 15.943 11.4045L14.2985 14.3455C14.1998 14.5325 13.9778 14.609 13.7969 14.5325L11.7494 13.6825C11.3219 14.014 10.8778 14.303 10.3598 14.5155L10.0556 16.768C10.0227 16.972 9.85001 17.125 9.64445 17.125H6.35539ZM7.38322 1.825L7.07899 4.0435C6.09227 4.256 5.22067 4.8 4.58753 5.5565L2.60587 4.6725L1.98917 5.7775L3.72415 7.095C3.39524 8.08667 3.39524 9.16333 3.72415 10.155L1.98095 11.481L2.59765 12.586L4.59575 11.702C5.22889 12.45 6.09227 12.994 7.07076 13.198L7.375 15.425H8.62484L8.92908 13.2065C9.90757 12.994 10.7709 12.45 11.4041 11.702L13.4022 12.586L14.0189 11.481L12.2757 10.1635C12.6046 9.169 12.6046 8.0895 12.2757 7.095L14.0107 5.7775L13.394 4.6725L11.4123 5.5565C10.7662 4.78327 9.88976 4.25402 8.92086 4.052L8.61662 1.825H7.38322Z" fill="white"/>
</svg>
