<svg width="16" height="16" viewBox="0 0 16 16" fill="none" xmlns="http://www.w3.org/2000/svg">
<path d="M4.00033 15.3333C3.63366 15.3333 3.31966 15.2027 3.05833 14.9413C2.79699 14.68 2.66655 14.3662 2.66699 14V6.66666C2.66699 6.29999 2.79766 5.98599 3.05899 5.72466C3.32033 5.46332 3.6341 5.33288 4.00033 5.33332H6.00033V6.66666H4.00033V14H12.0003V6.66666H10.0003V5.33332H12.0003C12.367 5.33332 12.681 5.46399 12.9423 5.72532C13.2037 5.98666 13.3341 6.30043 13.3337 6.66666V14C13.3337 14.3667 13.203 14.6807 12.9417 14.942C12.6803 15.2033 12.3665 15.3338 12.0003 15.3333H4.00033ZM7.33366 10.6667V3.21666L6.26699 4.28332L5.33366 3.33332L8.00033 0.666656L10.667 3.33332L9.73366 4.28332L8.66699 3.21666V10.6667H7.33366Z" fill=""/>
</svg>
