<svg width="10" height="9" viewBox="0 0 10 9" fill="none" xmlns="http://www.w3.org/2000/svg">
<path d="M6.25005 8.6695H2.08339V7.83617H6.25005V8.6695ZM9.16672 1.16659L7.1938 3.64784L7.10214 3.76034L4.7563 6.75617C4.67888 6.83359 4.58696 6.89501 4.4858 6.93691C4.38464 6.97882 4.27621 7.00038 4.16672 7.00038C4.05722 7.00038 3.9488 6.97882 3.84764 6.93691C3.74648 6.89501 3.65456 6.83359 3.57714 6.75617C3.49971 6.67874 3.43829 6.58683 3.39639 6.48566C3.35449 6.3845 3.33292 6.27608 3.33292 6.16658C3.33292 6.05709 3.35449 5.94867 3.39639 5.8475C3.43829 5.74634 3.49971 5.65443 3.57714 5.577L9.16672 1.16659ZM1.10214 2.51409C0.500274 3.47806 0.283806 4.63345 0.495885 5.74992H0.833385V5.33325C0.828845 4.51283 1.07448 3.71051 1.53755 3.03325L1.10214 2.51409ZM5.00005 0.333252C4.36284 0.333111 3.73265 0.466351 3.15002 0.724403C2.5674 0.982454 2.04524 1.3596 1.61714 1.83159L2.0938 2.39992C2.65944 1.87981 3.39833 1.58871 4.16672 1.58325C4.93925 1.58864 5.68188 1.8826 6.2488 2.40742L7.72797 1.23992C6.94031 0.651275 5.98337 0.33322 5.00005 0.333252ZM7.84589 4.16658L7.7488 4.28617L7.44547 4.67367C7.48092 4.89176 7.49917 5.1123 7.50005 5.33325V5.74992H9.50422C9.70194 4.70717 9.52751 3.62809 9.0113 2.70075L7.84589 4.16658Z" fill=""/>
</svg>
