<svg width="19" height="19" viewBox="0 0 48 46" fill="none" xmlns="http://www.w3.org/2000/svg">
<path d="M47.7538 45.0801C47.5917 45.3599 47.3586 45.5921 47.0778 45.7536C46.7971 45.9151 46.4786 46.0001 46.1545 46H1.84436C1.52044 45.9997 1.2023 45.9144 0.921898 45.7528C0.641495 45.5912 0.408697 45.3589 0.246878 45.0793C0.0850594 44.7997 -8.31005e-05 44.4826 6.08613e-08 44.1598C8.32222e-05 43.837 0.085389 43.5199 0.247352 43.2404C3.76216 37.1853 9.17861 32.8435 15.4997 30.7853C12.373 28.9305 9.94376 26.1042 8.58501 22.7405C7.22626 19.3768 7.01315 15.6616 7.97841 12.1655C8.94366 8.66944 11.0339 5.58574 13.9282 3.388C16.8224 1.19026 20.3606 0 23.9994 0C27.6382 0 31.1764 1.19026 34.0707 3.388C36.9649 5.58574 39.0552 8.66944 40.0204 12.1655C40.9857 15.6616 40.7726 19.3768 39.4138 22.7405C38.0551 26.1042 35.6258 28.9305 32.4991 30.7853C38.8202 32.8435 44.2367 37.1853 47.7515 43.2404C47.9139 43.5198 47.9996 43.837 48 44.1599C48.0004 44.4829 47.9155 44.8002 47.7538 45.0801Z" fill=""/>
</svg>
