<svg width="19" height="19" viewBox="0 0 19 19" fill="none" xmlns="http://www.w3.org/2000/svg">
<path d="M1.1875 7.3125H17.8125M1.1875 7.3125V16.9375C1.1875 17.1696 1.27969 17.3921 1.44378 17.5562C1.60788 17.7203 1.83044 17.8125 2.0625 17.8125H16.9375C17.1696 17.8125 17.3921 17.7203 17.5562 17.5562C17.7203 17.3921 17.8125 17.1696 17.8125 16.9375V7.3125M1.1875 7.3125V3.375C1.1875 3.14294 1.27969 2.92038 1.44378 2.75628C1.60788 2.59219 1.83044 2.5 2.0625 2.5H16.9375C17.1696 2.5 17.3921 2.59219 17.5562 2.75628C17.7203 2.92038 17.8125 3.14294 17.8125 3.375V7.3125" stroke="#10567D" stroke-width="1.75" stroke-linejoin="round"/>
<path d="M6 12.5625L8.625 15.1875L13.875 9.9375" stroke="#10567D" stroke-width="1.75" stroke-linecap="round" stroke-linejoin="round"/>
<path d="M6 1.1875V4.6875M13 1.1875V4.6875" stroke="#10567D" stroke-width="1.75" stroke-linecap="round"/>
</svg>
